<?xml version="1.0" standalone="no"?>
<!DOCTYPE svg PUBLIC "-//W3C//DTD SVG 20010904//EN"
 "http://www.w3.org/TR/2001/REC-SVG-20010904/DTD/svg10.dtd">
<svg version="1.0" xmlns="http://www.w3.org/2000/svg"
 width="79.000000pt" height="79.000000pt" viewBox="0 0 79.000000 79.000000"
 preserveAspectRatio="xMidYMid meet">
<metadata>
Created by potrace 1.11, written by Peter Selinger 2001-2013
</metadata>
<g transform="translate(0.000000,79.000000) scale(0.100000,-0.100000)"
fill="#000000" stroke="none">
<path d="M160 780 c15 -9 13 -11 -12 -14 -6 0 -12 -9 -14 -19 -1 -9 2 -15 7
-11 5 3 6 11 3 17 -4 7 -3 8 1 4 11 -9 16 -37 7 -36 -19 3 -33 -2 -28 -9 3 -5
-1 -9 -9 -9 -8 0 -11 5 -8 11 4 6 -3 2 -15 -8 -12 -11 -22 -15 -22 -11 0 5 -7
0 -15 -11 -12 -16 -14 -72 -15 -326 0 -199 4 -308 10 -308 6 0 10 -7 10 -15 0
-8 9 -15 21 -15 11 0 18 -3 15 -8 -2 -4 116 -7 264 -7 147 0 266 3 264 7 -5 8
17 5 34 -5 7 -5 12 -4 12 2 0 6 13 11 30 11 22 0 28 4 24 15 -4 8 -1 15 4 15
17 0 16 610 -1 630 -14 17 -62 46 -53 32 3 -5 -1 -9 -9 -9 -8 0 -12 4 -10 8 3
3 -4 9 -14 12 -20 5 -22 21 -7 45 4 7 4 12 -1 11 -4 -1 -10 -1 -13 1 -12 4
-54 8 -42 4 18 -8 4 -24 -16 -18 -14 5 -14 4 -3 -4 19 -14 23 -42 5 -35 -9 3
-14 -2 -14 -13 0 -16 -2 -17 -10 -4 -9 13 -10 13 -10 0 0 -13 -1 -13 -10 0 -9
13 -10 13 -10 0 0 -13 -1 -13 -10 0 -6 10 -10 11 -10 3 0 -7 -5 -13 -11 -13
-5 0 -7 6 -3 13 5 8 2 8 -9 -2 -14 -11 -17 -11 -17 0 0 11 -2 11 -10 -1 -9
-13 -10 -13 -10 0 0 13 -1 13 -10 0 -9 -13 -10 -13 -10 0 0 13 -1 13 -10 0 -9
-13 -10 -13 -10 0 0 13 -1 13 -10 0 -7 -11 -10 -11 -10 -2 0 8 -5 10 -12 5
-17 -10 -39 -13 -34 -4 3 4 -11 7 -29 7 -18 0 -32 -3 -30 -6 2 -3 -6 -7 -18
-7 -17 -2 -19 0 -7 7 12 8 11 10 -7 10 -12 0 -25 5 -29 12 -5 7 -2 9 8 6 10
-4 14 0 13 15 -1 12 -7 23 -13 23 -7 1 -13 2 -14 3 -2 2 -14 4 -28 7 -19 3
-21 2 -10 -6z"/>
</g>
</svg>
